<svg xmlns="http://www.w3.org/2000/svg" xmlns:xlink="http://www.w3.org/1999/xlink" width="1920" height="1080" viewBox="0 0 1920 1080">
  <defs>
    <clipPath id="clip-Start_Your_Project_Business_1">
      <rect width="1920" height="1080"/>
    </clipPath>
  </defs>
  <g id="Start_Your_Project_Business_1" data-name="Start Your Project Business – 1" clip-path="url(#clip-Start_Your_Project_Business_1)">
    <rect width="1920" height="1080" fill="#152242"/>
    <rect id="Rectangle_8" data-name="Rectangle 8" width="1920" height="1080" fill="#152242"/>
    <g id="_5d4f8fbb8ab9f534740b0f95_asset-parallax-09" data-name="5d4f8fbb8ab9f534740b0f95_asset-parallax-09" transform="translate(309 730)">
      <g id="Group_76" data-name="Group 76">
        <path id="Path_34" data-name="Path 34" d="M291,119.8l-1.1,215.7,315.6-1.1-59.9-76.5-32.4-35.7L366.9,75.9,323,72Z" fill="#001142"/>
        <path id="Path_35" data-name="Path 35" d="M289.2,119.8,273.3,81l-37.9,23.9L220.1,69.1,0,289.2v45.2l288.1,1.1" fill="#2b4482"/>
        <path id="Path_36" data-name="Path 36" d="M289.2,119.8l32-47.8,43.9,3.9-5.7-5.7L289.2,0V119.8Z" fill="#d0e9fc"/>
        <path id="Path_37" data-name="Path 37" d="M273.3,81l15.9,38.8V0L239.6,49.6,220.1,69.1l15.3,35.8Z" fill="#e3f2ff"/>
      </g>
      <g id="Group_77" data-name="Group 77">
        <path id="Path_38" data-name="Path 38" d="M1198.4,197.6,1076.7,75.9l-44-3.9-31.9,47.8-1.1,215.7,198.7-2.8" fill="#001142"/>
        <path id="Path_39" data-name="Path 39" d="M1000.8,119.8,984.9,81,947,104.9,931.7,69.1,668.3,332.5l43.3,1.9,288.1,1.1" fill="#2b4482"/>
        <path id="Path_40" data-name="Path 40" d="M1000.8,119.8,1032.7,72l44,3.9-5.7-5.7L1000.8,0V119.8Z" fill="#d0e9fc"/>
        <path id="Path_41" data-name="Path 41" d="M984.9,81l15.9,38.8V0L951.2,49.6,931.7,69.1,947,104.9Z" fill="#e3f2ff"/>
      </g>
    </g>
    <g id="_5d4f8fbb8ab9f587d60b0f8e_asset-parallax-06" data-name="5d4f8fbb8ab9f587d60b0f8e_asset-parallax-06" transform="translate(273 233)">
      <g id="Group_63" data-name="Group 63" transform="translate(949.237 236.72)">
        <circle id="Ellipse_50" data-name="Ellipse 50" cx="3.8" cy="3.8" r="3.8" fill="#fff"/>
      </g>
      <g id="Group_64" data-name="Group 64" transform="translate(370.255 269.137)">
        <circle id="Ellipse_51" data-name="Ellipse 51" cx="4" cy="4" r="4" fill="#fff"/>
      </g>
      <g id="Group_65" data-name="Group 65" transform="translate(169.4 0)">
        <circle id="Ellipse_52" data-name="Ellipse 52" cx="4.3" cy="4.3" r="4.3" fill="#fff"/>
      </g>
      <g id="Group_66" data-name="Group 66" transform="translate(0 35.2)">
        <circle id="Ellipse_53" data-name="Ellipse 53" cx="2.1" cy="2.1" r="2.1" fill="#fff"/>
      </g>
      <g id="Group_67" data-name="Group 67" transform="translate(25.5 225.137)">
        <circle id="Ellipse_54" data-name="Ellipse 54" cx="2.7" cy="2.7" r="2.7" fill="#fff"/>
      </g>
      <g id="Group_68" data-name="Group 68" transform="translate(7.5 560.906)">
        <circle id="Ellipse_55" data-name="Ellipse 55" cx="5" cy="5" r="5" fill="#fff"/>
      </g>
      <g id="Group_69" data-name="Group 69" transform="translate(188.3 646.206)">
        <circle id="Ellipse_56" data-name="Ellipse 56" cx="2.9" cy="2.9" r="2.9" fill="#fff"/>
      </g>
      <g id="Group_70" data-name="Group 70" transform="translate(574.879 6.8)">
        <circle id="Ellipse_57" data-name="Ellipse 57" cx="8.8" cy="8.8" r="8.8" fill="#fff"/>
      </g>
      <g id="Group_71" data-name="Group 71" transform="translate(1161.6 517.49)">
        <circle id="Ellipse_58" data-name="Ellipse 58" cx="4.2" cy="4.2" r="4.2" fill="#fff"/>
      </g>
      <g id="Group_72" data-name="Group 72" transform="translate(1323.7 583.006)">
        <circle id="Ellipse_59" data-name="Ellipse 59" cx="5.4" cy="5.4" r="5.4" fill="#fff"/>
      </g>
      <g id="Group_73" data-name="Group 73" transform="translate(1281.8 249.192)">
        <circle id="Ellipse_60" data-name="Ellipse 60" cx="4.8" cy="4.8" r="4.8" fill="#fff"/>
      </g>
      <g id="Group_74" data-name="Group 74" transform="translate(1297.8 26.7)">
        <circle id="Ellipse_61" data-name="Ellipse 61" cx="5.4" cy="5.4" r="5.4" fill="#fff"/>
      </g>
      <g id="Group_75" data-name="Group 75" transform="translate(423.479 418.503)">
        <ellipse id="Ellipse_62" data-name="Ellipse 62" cx="5.2" cy="5.1" rx="5.2" ry="5.1" fill="#fff"/>
      </g>
    </g>
    <g id="Group_18" data-name="Group 18">
      <g id="Group_16" data-name="Group 16">
        <g id="Group_7" data-name="Group 7" transform="translate(153.989 7.178)">
          <ellipse id="Ellipse_6" data-name="Ellipse 6" cx="236.5" cy="231" rx="236.5" ry="231" transform="translate(-290.989 788.822)" fill="#dadada"/>
          <ellipse id="Ellipse_7" data-name="Ellipse 7" cx="236.5" cy="208.5" rx="236.5" ry="208.5" transform="translate(-85.989 867.822)" fill="#dadada"/>
          <ellipse id="Ellipse_8" data-name="Ellipse 8" cx="236.5" cy="231" rx="236.5" ry="231" transform="translate(59.011 858.822)" fill="#dadada"/>
          <ellipse id="Ellipse_9" data-name="Ellipse 9" cx="236.5" cy="231" rx="236.5" ry="231" transform="translate(333.011 910.822)" fill="#dadada"/>
        </g>
        <g id="Group_6" data-name="Group 6">
          <ellipse id="Ellipse_6-2" data-name="Ellipse 6" cx="236.5" cy="231" rx="236.5" ry="231" transform="translate(-256 784)" fill="#fff"/>
          <ellipse id="Ellipse_7-2" data-name="Ellipse 7" cx="236.5" cy="231" rx="236.5" ry="231" transform="translate(54 849)" fill="#fff"/>
          <ellipse id="Ellipse_8-2" data-name="Ellipse 8" cx="236.5" cy="231" rx="236.5" ry="231" transform="translate(278 904)" fill="#fff"/>
          <ellipse id="Ellipse_9-2" data-name="Ellipse 9" cx="236.5" cy="231" rx="236.5" ry="231" transform="translate(524 940)" fill="#fff"/>
        </g>
      </g>
      <g id="Group_17" data-name="Group 17">
        <g id="Group_9" data-name="Group 9" transform="translate(985.761 133.25) rotate(-21)">
          <ellipse id="Ellipse_6-3" data-name="Ellipse 6" cx="236.5" cy="231" rx="236.5" ry="231" transform="translate(-344.468 802.57)" fill="#dadada"/>
          <ellipse id="Ellipse_7-3" data-name="Ellipse 7" cx="236.5" cy="208.5" rx="236.5" ry="208.5" transform="translate(-85.989 867.822)" fill="#dadada"/>
          <ellipse id="Ellipse_8-3" data-name="Ellipse 8" cx="236.5" cy="231" rx="236.5" ry="231" transform="translate(166.948 901.326)" fill="#dadada"/>
          <ellipse id="Ellipse_9-3" data-name="Ellipse 9" cx="236.5" cy="231" rx="236.5" ry="231" transform="translate(333.011 910.822)" fill="#dadada"/>
        </g>
        <g id="Group_8" data-name="Group 8">
          <ellipse id="Ellipse_10" data-name="Ellipse 10" cx="236.5" cy="231" rx="236.5" ry="231" transform="translate(724 1015)" fill="#fff"/>
          <ellipse id="Ellipse_12" data-name="Ellipse 12" cx="236.5" cy="231" rx="236.5" ry="231" transform="translate(1693 774)" fill="#fff"/>
          <ellipse id="Ellipse_13" data-name="Ellipse 13" cx="236.5" cy="231" rx="236.5" ry="231" transform="translate(1464 851)" fill="#fff"/>
          <ellipse id="Ellipse_14" data-name="Ellipse 14" cx="236.5" cy="231" rx="236.5" ry="231" transform="translate(1214 887)" fill="#fff"/>
          <ellipse id="Ellipse_15" data-name="Ellipse 15" cx="236.5" cy="231" rx="236.5" ry="231" transform="translate(960 940)" fill="#fff"/>
        </g>
      </g>
    </g>
    <g id="Ellipse_18" data-name="Ellipse 18" transform="translate(1784 47)" fill="#fff" stroke="#707070" stroke-width="1">
      <ellipse cx="5" cy="5.5" rx="5" ry="5.5" stroke="none"/>
      <ellipse cx="5" cy="5.5" rx="4.5" ry="5" fill="none"/>
    </g>
    <g id="Ellipse_19" data-name="Ellipse 19" transform="translate(1729 74)" fill="#fff" stroke="#707070" stroke-width="1">
      <ellipse cx="4.5" cy="5" rx="4.5" ry="5" stroke="none"/>
      <ellipse cx="4.5" cy="5" rx="4" ry="4.5" fill="none"/>
    </g>
    <g id="Ellipse_20" data-name="Ellipse 20" transform="translate(1759 162)" fill="#fff" stroke="#707070" stroke-width="1">
      <ellipse cx="5" cy="5.5" rx="5" ry="5.5" stroke="none"/>
      <ellipse cx="5" cy="5.5" rx="4.5" ry="5" fill="none"/>
    </g>
    <g id="Ellipse_21" data-name="Ellipse 21" transform="translate(1839 181)" fill="#fff" stroke="#707070" stroke-width="1">
      <circle cx="4" cy="4" r="4" stroke="none"/>
      <circle cx="4" cy="4" r="3.5" fill="none"/>
    </g>
    <g id="Ellipse_22" data-name="Ellipse 22" transform="translate(1860 105)" fill="#fff" stroke="#707070" stroke-width="1">
      <circle cx="3.5" cy="3.5" r="3.5" stroke="none"/>
      <circle cx="3.5" cy="3.5" r="3" fill="none"/>
    </g>
    <g id="Ellipse_23" data-name="Ellipse 23" transform="translate(1813 84)" fill="#fff" stroke="#707070" stroke-width="1">
      <circle cx="2.5" cy="2.5" r="2.5" stroke="none"/>
      <circle cx="2.5" cy="2.5" r="2" fill="none"/>
    </g>
    <g id="Ellipse_24" data-name="Ellipse 24" transform="translate(1883 153)" fill="#fff" stroke="#707070" stroke-width="1">
      <circle cx="3" cy="3" r="3" stroke="none"/>
      <circle cx="3" cy="3" r="2.5" fill="none"/>
    </g>
    <g id="Ellipse_25" data-name="Ellipse 25" transform="translate(1876 233)" fill="#fff" stroke="#707070" stroke-width="1">
      <circle cx="3.5" cy="3.5" r="3.5" stroke="none"/>
      <circle cx="3.5" cy="3.5" r="3" fill="none"/>
    </g>
    <g id="Ellipse_26" data-name="Ellipse 26" transform="translate(1806 237)" fill="#fff" stroke="#707070" stroke-width="1">
      <circle cx="3.5" cy="3.5" r="3.5" stroke="none"/>
      <circle cx="3.5" cy="3.5" r="3" fill="none"/>
    </g>
    <g id="Ellipse_27" data-name="Ellipse 27" transform="translate(1769 218)" fill="#fff" stroke="#707070" stroke-width="1">
      <circle cx="2.5" cy="2.5" r="2.5" stroke="none"/>
      <circle cx="2.5" cy="2.5" r="2" fill="none"/>
    </g>
    <g id="Ellipse_28" data-name="Ellipse 28" transform="translate(1794 173)" fill="#fff" stroke="#707070" stroke-width="1">
      <circle cx="4" cy="4" r="4" stroke="none"/>
      <circle cx="4" cy="4" r="3.5" fill="none"/>
    </g>
    <g id="Ellipse_29" data-name="Ellipse 29" transform="translate(1880 19)" fill="#fff" stroke="#707070" stroke-width="1">
      <circle cx="3" cy="3" r="3" stroke="none"/>
      <circle cx="3" cy="3" r="2.5" fill="none"/>
    </g>
    <g id="Ellipse_30" data-name="Ellipse 30" transform="translate(1857 19)" fill="#fff" stroke="#707070" stroke-width="1">
      <circle cx="3" cy="3" r="3" stroke="none"/>
      <circle cx="3" cy="3" r="2.5" fill="none"/>
    </g>
    <g id="_5d4f8fbb8ab9f538420b0f94_asset-parallax-03" data-name="5d4f8fbb8ab9f538420b0f94_asset-parallax-03" transform="matrix(0.883, -0.469, 0.469, 0.883, 1728.653, 202.57)">
      <g id="Group_62" data-name="Group 62" transform="translate(0 -0.008)">
        <g id="Group_31" data-name="Group 31">
          <g id="Group_20" data-name="Group 20" transform="translate(0 99.32)">
            <g id="Group_19" data-name="Group 19">
              <path id="Path_16" data-name="Path 16" d="M82.175,123.43C41.623,122.516,8.217,93.071,0,54.3c1.25,51.39,41.98,93.088,92.536,94l.536-25.421A108.691,108.691,0,0,1,82.175,123.43Z" transform="translate(0 -54.3)" fill="#7895b7"/>
            </g>
          </g>
          <g id="Group_22" data-name="Group 22" transform="translate(92.357 7.513)">
            <g id="Group_21" data-name="Group 21">
              <path id="Path_17" data-name="Path 17" d="M89.929,4.1a87.7,87.7,0,0,1,38.586,74.982c-.893,44.624-33.942,80.834-76.279,85.407L51.7,189.91c52.163.914,95.215-41.515,96.108-94.916C148.88,54.21,124.764,18.731,89.929,4.1Z" transform="translate(-51.7 -4.1)" fill="#3f67c0"/>
            </g>
          </g>
          <g id="Group_24" data-name="Group 24">
            <g id="Group_23" data-name="Group 23">
              <path id="Path_18" data-name="Path 18" d="M82.175,168.442c3.751,0,7.324-.183,11.076-.549L96.108.007C43.946-.908.893,41.521,0,94.923v4.389C8.217,138.084,41.623,167.528,82.175,168.442Z" transform="translate(0 0.008)" fill="#859fd7"/>
            </g>
          </g>
          <g id="Group_26" data-name="Group 26">
            <g id="Group_25" data-name="Group 25">
              <path id="Path_19" data-name="Path 19" d="M82.175,168.442c3.751,0,7.324-.183,11.076-.549L96.108.007C43.946-.908.893,41.521,0,94.923v4.389C8.217,138.084,41.623,167.528,82.175,168.442Z" transform="translate(0 0.008)" fill="#dfe8f0"/>
            </g>
          </g>
          <g id="Group_28" data-name="Group 28" transform="translate(93.072 0.015)">
            <g id="Group_27" data-name="Group 27">
              <path id="Path_20" data-name="Path 20" d="M52.1,167.887c42.159-4.755,75.386-40.966,76.279-85.589A88.352,88.352,0,0,0,89.793,7.315,91.058,91.058,0,0,0,55.316,0Z" transform="translate(-52.1)" fill="#7492b5"/>
            </g>
          </g>
          <g id="Group_30" data-name="Group 30" transform="translate(93.072 0.015)">
            <g id="Group_29" data-name="Group 29">
              <path id="Path_21" data-name="Path 21" d="M52.1,167.887c42.159-4.755,75.386-40.966,76.279-85.589A88.352,88.352,0,0,0,89.793,7.315,91.058,91.058,0,0,0,55.316,0Z" transform="translate(-52.1)" fill="#7895b7"/>
            </g>
          </g>
        </g>
        <g id="Group_36" data-name="Group 36" transform="translate(54.481 36.038)">
          <g id="Group_33" data-name="Group 33">
            <g id="Group_32" data-name="Group 32">
              <path id="Path_22" data-name="Path 22" d="M35.147,33.967c.179-5.3,4.466-9.693,9.647-9.51a9.421,9.421,0,0,1,8.932,7.132A11.814,11.814,0,0,0,42.292,19.7a11.607,11.607,0,0,0-11.79,11.7,11.593,11.593,0,0,0,11.254,12.07A9.874,9.874,0,0,1,35.147,33.967Z" transform="translate(-30.497 -19.697)" fill="#859fd7"/>
            </g>
          </g>
          <g id="Group_35" data-name="Group 35" transform="translate(4.828 4.754)">
            <g id="Group_34" data-name="Group 34">
              <path id="Path_23" data-name="Path 23" d="M51.779,29.618v-.183A9.635,9.635,0,0,0,42.847,22.3a9.522,9.522,0,0,0-9.647,9.51,9.874,9.874,0,0,0,6.61,9.51h.179C46.419,41.505,51.6,36.2,51.779,29.618Z" transform="translate(-33.2 -22.297)" fill="#dae4ee"/>
            </g>
          </g>
        </g>
        <g id="Group_41" data-name="Group 41" transform="translate(20.898 89.991)">
          <g id="Group_38" data-name="Group 38">
            <g id="Group_37" data-name="Group 37">
              <path id="Path_24" data-name="Path 24" d="M19.919,75.171A17.423,17.423,0,0,1,37.6,57.8,17.713,17.713,0,0,1,54.039,70.781c0-11.7-9.289-21.4-20.722-21.58a21.692,21.692,0,0,0-1.25,43.343A17.862,17.862,0,0,1,19.919,75.171Z" transform="translate(-11.699 -49.199)" fill="#859fd7"/>
            </g>
          </g>
          <g id="Group_40" data-name="Group 40" transform="translate(8.037 8.595)">
            <g id="Group_39" data-name="Group 39">
              <path id="Path_25" data-name="Path 25" d="M50.322,67.252v-.366A17.541,17.541,0,0,0,33.887,53.9,17.541,17.541,0,0,0,16.2,71.275,17.768,17.768,0,0,0,28.171,88.466h.357A21.438,21.438,0,0,0,50.322,67.252Z" transform="translate(-16.197 -53.898)" fill="#dae4ee"/>
            </g>
          </g>
        </g>
        <g id="Group_46" data-name="Group 46" transform="translate(63.949 158.021)">
          <g id="Group_43" data-name="Group 43">
            <g id="Group_42" data-name="Group 42">
              <path id="Path_26" data-name="Path 26" d="M40.447,100.667c.179-5.3,4.466-9.693,9.647-9.51a9.421,9.421,0,0,1,8.932,7.132A11.814,11.814,0,0,0,47.592,86.4a11.9,11.9,0,0,0-.536,23.775A9.874,9.874,0,0,1,40.447,100.667Z" transform="translate(-35.797 -86.397)" fill="#213256"/>
            </g>
          </g>
          <g id="Group_45" data-name="Group 45" transform="translate(4.828 4.754)">
            <g id="Group_44" data-name="Group 44">
              <path id="Path_27" data-name="Path 27" d="M57.079,96.318v-.183A9.636,9.636,0,0,0,48.147,89a9.522,9.522,0,0,0-9.647,9.51,9.874,9.874,0,0,0,6.61,9.51h.179C51.541,108.205,56.9,102.9,57.079,96.318Z" transform="translate(-38.5 -88.997)" fill="#859fd7"/>
            </g>
          </g>
        </g>
        <g id="Group_51" data-name="Group 51" transform="translate(124.691 33.848)">
          <g id="Group_48" data-name="Group 48">
            <g id="Group_47" data-name="Group 47">
              <path id="Path_28" data-name="Path 28" d="M73.016,28.376a6.633,6.633,0,0,1,6.61-6.584,6.73,6.73,0,0,1,6.252,4.938,8.314,8.314,0,0,0-7.86-8.23A8.211,8.211,0,0,0,69.8,26.547a8.331,8.331,0,0,0,7.682,8.413A6.692,6.692,0,0,1,73.016,28.376Z" transform="translate(-69.8 -18.5)" fill="#3b64be"/>
            </g>
          </g>
          <g id="Group_50" data-name="Group 50" transform="translate(3.216 3.109)">
            <g id="Group_49" data-name="Group 49">
              <path id="Path_29" data-name="Path 29" d="M84.462,25.321h0A6.732,6.732,0,0,0,78.21,20.2a6.633,6.633,0,0,0-6.61,6.584,6.758,6.758,0,0,0,4.466,6.584h.179A8.091,8.091,0,0,0,84.462,25.321Z" transform="translate(-71.6 -20.2)" fill="#859fd7"/>
            </g>
          </g>
        </g>
        <g id="Group_56" data-name="Group 56" transform="translate(88.067 75.359)">
          <g id="Group_53" data-name="Group 53">
            <g id="Group_52" data-name="Group 52">
              <path id="Path_30" data-name="Path 30" d="M56.447,63.7a14.886,14.886,0,0,1,29.3-3.841A18.233,18.233,0,1,0,66.808,78.51,14.965,14.965,0,0,1,56.447,63.7Z" transform="translate(-49.298 -41.198)" fill="#3b64be"/>
            </g>
          </g>
          <g id="Group_55" data-name="Group 55" transform="translate(6.965 7.498)">
            <g id="Group_54" data-name="Group 54">
              <path id="Path_31" data-name="Path 31" d="M82.5,56.823v-.366A14.984,14.984,0,1,0,63.563,75.112h.357A18.39,18.39,0,0,0,82.5,56.823Z" transform="translate(-53.197 -45.298)" fill="#859fd7"/>
            </g>
          </g>
        </g>
        <g id="Group_61" data-name="Group 61" transform="translate(130.761 134.613)">
          <g id="Group_58" data-name="Group 58">
            <g id="Group_57" data-name="Group 57">
              <path id="Path_32" data-name="Path 32" d="M78.382,89.878a10.808,10.808,0,0,1,21.258-2.743A13.434,13.434,0,0,0,86.6,73.6a13.548,13.548,0,0,0-.715,27.067A11.078,11.078,0,0,1,78.382,89.878Z" transform="translate(-73.198 -73.598)" fill="#213256"/>
            </g>
          </g>
          <g id="Group_60" data-name="Group 60" transform="translate(5.185 5.303)">
            <g id="Group_59" data-name="Group 59">
              <path id="Path_33" data-name="Path 33" d="M97.358,84.915v-.366A10.764,10.764,0,0,0,87.176,76.5,11.022,11.022,0,0,0,76.1,87.292a11.246,11.246,0,0,0,7.5,10.79h.357C91.284,98.448,97.18,92.413,97.358,84.915Z" transform="translate(-76.1 -76.497)" fill="#859fd7"/>
            </g>
          </g>
        </g>
      </g>
    </g>
    <g id="Group_84" data-name="Group 84" transform="translate(434 72)">
      <path id="Path_332" data-name="Path 332" d="M942.464,764.477,852.734,1079.7H1096.5l-73.279-315.221Z" transform="translate(-452 -122)" fill="#fff"/>
      <g id="Group_14" data-name="Group 14" transform="translate(-3675 454)">
        <path id="Path_4" data-name="Path 4" d="M4469.158,562.4l-11.815,10s-5.467,24.3-2.514,56.1c1.317,14.183,2.108,32.609,5.028,45.662,3.607,16.128,9.3,25.44,9.3,25.44l48.769-46.315a209.449,209.449,0,0,1-26.647-38.487C4479.087,592.083,4469.158,562.4,4469.158,562.4Z" transform="translate(-351.563 -476.178)" fill="#ee3a3a"/>
        <path id="Path_3" data-name="Path 3" d="M4501.143,562.4l11.433,10s5.291,24.3,2.432,56.1c-1.274,14.183-2.039,32.609-4.865,45.662-3.491,16.128-9,25.44-9,25.44l-47.19-46.315a209.493,209.493,0,0,0,25.784-38.487C4491.535,592.083,4501.143,562.4,4501.143,562.4Z" transform="translate(-207.063 -475.026)" fill="#ee3a3a"/>
        <path id="Path_1" data-name="Path 1" d="M4150.7-19.889h107.952s53.041,82.884,50.235,162.423-61.458,155.735-61.458,155.735h-84.972s-59.32-82.645-60.389-164.812S4150.7-19.889,4150.7-19.889Z" transform="translate(0 -117.666)" fill="#73ecff"/>
        <path id="Subtraction_3" data-name="Subtraction 3" d="M0,311.626H42.594l0,0c.155-.214,3.864-5.334,9.245-13.9,3.225-5.136,6.422-10.5,9.5-15.951,3.849-6.81,7.524-13.767,10.922-20.677a339.943,339.943,0,0,0,20.622-51.718,249.457,249.457,0,0,0,6.956-29.133c.875-5.052,1.561-10.088,2.039-14.967.5-5.1.786-10.173.851-15.076s-.059-9.932-.368-14.949c-.3-4.8-.769-9.716-1.407-14.611a243.9,243.9,0,0,0-5.343-27.86,295.275,295.275,0,0,0-16.7-47.858c-2.792-6.27-5.823-12.533-9.01-18.616-2.549-4.866-5.2-9.627-7.887-14.152C57.465,4.475,54.334.044,54.3,0H51.01C64.93,28.916,87.239,86.647,80.24,148.41,76.633,180.233,63.882,215,42.341,251.738A437.792,437.792,0,0,1,0,311.625H0Z" transform="translate(4206.086 -131.021)" fill="#d1f9ff" opacity="0.44"/>
        <path id="Polygon_1" data-name="Polygon 1" d="M53.908,2.094a2,2,0,0,1,3.184,0l51.467,67.7A2,2,0,0,1,106.967,73H4.033a2,2,0,0,1-1.592-3.21Z" transform="translate(4148 -211)" fill="#ee3a3a"/>
        <g id="Ellipse_1" data-name="Ellipse 1" transform="translate(4159 -81)" fill="none" stroke="#707070" stroke-width="1">
          <ellipse cx="47.5" cy="42" rx="47.5" ry="42" stroke="none"/>
          <ellipse cx="47.5" cy="42" rx="47" ry="41.5" fill="none"/>
        </g>
        <ellipse id="Ellipse_3" data-name="Ellipse 3" cx="56" cy="51" rx="56" ry="51" transform="translate(4150 -90)" fill="#472969"/>
        <ellipse id="Ellipse_2" data-name="Ellipse 2" cx="47.5" cy="42" rx="47.5" ry="42" transform="translate(4159 -81)" fill="#ffa800"/>
        <path id="Subtraction_2" data-name="Subtraction 2" d="M37.468,77.49a53.385,53.385,0,0,1-11.054-1.15,51.149,51.149,0,0,1-10.128-3.274,48.644,48.644,0,0,1-8.9-5.132A45.416,45.416,0,0,1,0,61.209a51.558,51.558,0,0,0,26.29,7.058C52.485,68.266,73.8,49.3,73.8,25.992A39.01,39.01,0,0,0,63.757,0a46.768,46.768,0,0,1,8.71,6.632,42.932,42.932,0,0,1,6.694,8.306,39.465,39.465,0,0,1,4.3,9.641,38.072,38.072,0,0,1,.551,19.157,38.754,38.754,0,0,1-2.768,7.935,41.059,41.059,0,0,1-4.38,7.181,44.1,44.1,0,0,1-5.8,6.256,47.107,47.107,0,0,1-7.031,5.162,49.628,49.628,0,0,1-8.07,3.9,51.644,51.644,0,0,1-8.917,2.463A53.583,53.583,0,0,1,37.468,77.49Z" transform="translate(4168.815 -74.046)" fill="#f1d49c"/>
        <g id="Group_2" data-name="Group 2" transform="translate(4163.678 183.932)">
          <path id="Path_8" data-name="Path 8" d="M4853.252,2703.646s-18.3,32.962-11.223,75.479,39.547,94.587,39.547,94.587,32.6-49.682,40.081-92.2-10.154-77.868-10.154-77.868Z" transform="translate(-4840.401 -2703.646)" fill="#bf151e"/>
          <path id="Path_9" data-name="Path 9" d="M4850.129,2703.646s-13.856,26.163-8.5,59.91,29.937,75.077,29.937,75.077,24.678-39.434,30.342-73.181-7.687-61.806-7.687-61.806Z" transform="translate(-4830.943 -2695.576)" fill="#f19401"/>
          <path id="Path_10" data-name="Path 10" d="M4847.512,2703.646s-10.127,21.313-6.209,48.8,21.879,61.159,21.879,61.159,18.036-32.124,22.176-59.615a102.4,102.4,0,0,0-5.618-50.348Z" transform="translate(-4822.345 -2690.58)" fill="#fece02"/>
        </g>
        <g id="Group_3" data-name="Group 3" transform="translate(4247.083 199.688)">
          <path id="Path_8-2" data-name="Path 8" d="M4842.348,2703.647a11.93,11.93,0,0,0-1.7,8.817c1.072,4.967,5.99,11.05,5.99,11.05s4.938-5.8,6.071-10.771a12.932,12.932,0,0,0-1.538-9.1Z" transform="translate(-4840.401 -2703.647)" fill="#bf151e"/>
          <path id="Path_9-2" data-name="Path 9" d="M4841.871,2703.646a10.923,10.923,0,0,0-1.284,7.417c.81,4.178,4.524,9.294,4.524,9.294s3.73-4.882,4.585-9.06a11.882,11.882,0,0,0-1.161-7.651Z" transform="translate(-4838.76 -2702.47)" fill="#f19401"/>
          <path id="Path_10-2" data-name="Path 10" d="M4841.367,2703.646a9.386,9.386,0,0,0-.843,5.644,24.145,24.145,0,0,0,2.972,7.073,22.643,22.643,0,0,0,3.012-6.894,10.259,10.259,0,0,0-.764-5.823Z" transform="translate(-4837.269 -2701.742)" fill="#fece02"/>
        </g>
        <g id="Group_4" data-name="Group 4" transform="translate(4148.631 199.688)">
          <path id="Path_8-3" data-name="Path 8" d="M4842.348,2703.647a11.93,11.93,0,0,0-1.7,8.817c1.072,4.967,5.99,11.05,5.99,11.05s4.938-5.8,6.071-10.771a12.932,12.932,0,0,0-1.538-9.1Z" transform="translate(-4840.401 -2703.647)" fill="#bf151e"/>
          <path id="Path_9-3" data-name="Path 9" d="M4841.871,2703.646a10.923,10.923,0,0,0-1.284,7.417c.81,4.178,4.524,9.294,4.524,9.294s3.73-4.882,4.585-9.06a11.882,11.882,0,0,0-1.161-7.651Z" transform="translate(-4838.76 -2702.47)" fill="#f19401"/>
          <path id="Path_10-3" data-name="Path 10" d="M4841.367,2703.646a9.386,9.386,0,0,0-.843,5.644,24.145,24.145,0,0,0,2.972,7.073,22.643,22.643,0,0,0,3.012-6.894,10.259,10.259,0,0,0-.764-5.823Z" transform="translate(-4837.269 -2701.742)" fill="#fece02"/>
        </g>
        <path id="Rectangle_2" data-name="Rectangle 2" d="M1.65,0h79.7A1.65,1.65,0,0,1,83,1.65v0A9.35,9.35,0,0,1,73.65,11H9.35A9.35,9.35,0,0,1,0,1.65v0A1.65,1.65,0,0,1,1.65,0Z" transform="translate(4164 181)" fill="#eca22c"/>
        <g id="Group_1" data-name="Group 1" transform="translate(4190.338 87.528)">
          <path id="Path_2" data-name="Path 2" d="M4322.593,565.8l-15.182,21.961,15.182,118.5,17.414-118.5Z" transform="translate(-4307.412 -565.797)" fill="#35a6de"/>
          <path id="Subtraction_1" data-name="Subtraction 1" d="M14.654,135.587,0,21.2,14.655,0V135.587Z" transform="translate(0.86 0.762)" fill="#72beff"/>
        </g>
      </g>
    </g>
  </g>
</svg>
